<svg xmlns="http://www.w3.org/2000/svg" viewBox="0 0 160 65"><path d="M157.9 49.4c-1.2.2-2.5.3-3.8.4v.1c-2.4 17.4-26.2 20.2-26.8 6.6-.3-6.2 11.6-8 23.4-9.1.4-11.1-15.9 5.7-21.6-4.6-5-9 14.6-17.9 16.7-16.1 6.4 5.6 3.4 6.6-1.4 8.3-9.5 3.4-5.8 4.1-4.5 3.7 7.6-2.3 14.4-1 14.3 8.3 1.3-.1 2.5-.2 3.8-.3 2.4-.2 2.6 2.5-.1 2.7zm-7.5.7c-9.1 1-17 2.4-16.2 5.4 1.8 5.6 13.6 6.8 16.2-5.4zM117.7 44.9c-.7 0-.7-6 .1-11.7 1-7 11.9-3.4 9.1-1.9-3 1.5-4.4 8.7-6.3 12.1-.6 1.2-2.6 1.5-2.9 1.5zM42.1 21c2.4 4.9-4.9 8.2-8.3 4.5-1.4-1.6-.8-4.6 2.6-6.2 1.7-.8 4.1-1.6 5.7 1.7zM57.1 18.9c2.6 5.3-5.4 8.9-9 4.9-1.5-1.7-.8-5 2.9-6.7 1.8-1 4.3-1.8 6.1 1.8zM28.9 61.7C21 67 14.7 65.8 16.7 50.8c1.5-10.9-.9-11.5-3.1-9.4-2.8 2.7-4.6 9.7-4.7 16.4.3 1.7.6 3.3 1 4.8.3 1.6-4.9 3.3-8 1C.8 62.8 0 54.9 0 44.1 0 35.3 1.2 29.2 2.2 29c8-2.2 9.3 1.3 7.6 8-.7 2.8-1.2 5.4-1.4 7.9 1.7-4.7 4.1-8.5 6.8-10.2 7.4-4.7 13.6-2.5 12.4 6.8-2 16.6-2.2 18.8-.4 17.5 2.3-1.5 3.7 1.3 1.7 2.7zM55 59.6c-2.2 3.5-7.8 5.2-13.2 4.6-7.8-.9-12.6-7.8-10.7-18.2 2-11.2 18.1-18.3 23.2-10.3 3.7 5.8-2.2 16-11.6 19.8-.2.1-.3.1-.5.2 2 5.2 6.6 7.5 11 2.4 2.1-2.4 3.6-1.4 1.8 1.5zm-13.6-7.4c5.9-4.2 7.8-13.3 6.2-15.9-1.7-2.7-5.1 1.5-6.2 11.7-.2 1.5-.2 2.9 0 4.2zM83.1 45c-1.6 2.5-3.9 4.4-6 5.1-2.4.7-5.2.1-5.2-2.7 0-1 .9-3.4 3.6-4.7-.2-1.9-1.4-2.4-2.3-1.7-3.3 2.6-7.4 12.3-6.4 19.2.1.2.1.3.1.5.2.6.3 1.2.6 1.9.6 1.6-4.9 3.3-8 1-1.1-.8-1.6-7-1.6-17.7 0-8.8 2-16.6 3-16.9 6.4-1.7 10.1 1.3 8.1 7.2-1.2 3.4-2.2 6.8-2.8 10.4 2.5-6.7 6.5-12.9 9.8-14.5 5.9-2.9 10.1 1 8.9 7.8-.1.1-.1.4-.1.4-.1.6-.6 2.3-.4 1.7-.5 1.7-.9 2.3-1.3 3z"/><path d="M113.2 26.2c-.4 2.3-.8 4.8-1.1 7.5-1.1 10.1-.6 19 .6 23 .7 2.1 3.5 4.9 6.1 2 2.8-3.2 6-1.3 2.2 2.4-2.3 2.3-6.7 3.9-11 3.4-3.1-.4-5-2.4-6.1-5.5-.4.9-.9 1.7-1.6 2.3-2.1 2.2-4.7 3.4-8 3.1-6.6-.7-10.5-7.9-8.7-18.2 2-10.8 11.3-14.7 16.7-11.9.1-1.3.2-2.7.3-4.1.1-.3.1-.6.1-.8-1.6.3-3.2.7-5 1-24 4-15.7-15.6-9.9-20.7 6.6-5.7 7.4-1.9 5.3-.6-3.7 2.4-5.3 15.9 5.2 15.9 1.7 0 3.3-.1 5-.3C106.6 6.4 116.6-2.5 124.7.4c9 3.4 8.1 17.7-11.5 25.8zm-10.9 24.4c-.2-3.5-.2-7.5-.2-11.6 0-.5.1-1 .1-1.5-3.3-1.5-6.6 3.7-7.5 10.8-.9 8.4 2.8 12.8 4.9 10.8 1.6-1.7 2.5-6.9 2.7-8.5zm24.1-43.2c-1.8-2.6-8.3.6-12.1 14.3 9.5-4.5 13.3-12.4 12.1-14.3z"/></svg>