<svg id="Layer_1" xmlns="http://www.w3.org/2000/svg" viewBox="0 0 26 15"><style>.st0{fill:#FFFFFF;}</style><path class="st0" d="M16.1 11.5c1-.3 2.2 2 3.5 2.9 1 .7 1.7.5 1.7.5l3.5-.1s1.8-.1 1-1.6c-.1-.1-.5-1.1-2.6-3-2.2-2-1.9-1.7.7-5.2 1.6-2.2 2.2-3.5 2-4-.2-.5-1.4-.4-1.4-.4h-3.9c-.4 0-.7.1-.9.5 0 0-.6 1.7-1.4 3.1-1.7 3-2.4 3.1-2.7 3-.7-.4-.5-1.7-.5-2.7 0-2.9.4-4.1-.8-4.4-.4 0-.7-.1-1.8-.1-1.4 0-2.6 0-3.2.3-.5.3-.8.7-.6.8.3 0 .8.2 1.2.6.4.6.4 1.8.4 1.8s.2 3.4-.5 3.8c-.6.3-1.4-.3-2.9-3-.8-1.4-1.4-3-1.4-3s-.1-.2-.3-.4C4.9.7 4.6.7 4.6.7H.9S.3.7.1 1c-.2.2 0 .7 0 .7S3 8.5 6.3 12c3 3.2 6.5 3 6.5 3h1.6s.5-.1.7-.3c.2-.2.2-.7.2-.7s-.1-2.2.8-2.5z"/></svg>